<?xml version="1.0" encoding="utf-8"?>
<svg version="1.1" id="Capa_1" x="0px" y="0px" width="979.374px" height="979.373px" viewBox="0 0 979.374 979.373" style="enable-background:new 0 0 979.374 979.373;" xmlns="http://www.w3.org/2000/svg">
  <g transform="matrix(-1, 0, 0, -1, 979.372925, 979.373291)">
    <path d="M615.436,891h-125.5v22c0,33.101,26.9,60,60,60h234.601c33.1,0,60-26.899,60-60V61c0-33.1-26.9-60-60-60H549.936 c-33.1,0-60,26.9-60,60v22h125.5c16.601,0,30,13.4,30,30c0,16.6-13.399,30-30,30h-125.5v60.7h63.601c16.6,0,30,13.4,30,30 s-13.4,30-30,30h-63.601v66h63.601c16.6,0,30,13.4,30,30s-13.4,30-30,30h-63.601v66h125.5c16.601,0,30,13.4,30,30s-13.399,30-30,30 h-125.5v64.6h63.601c16.6,0,30,13.4,30,30c0,16.601-13.4,30-30,30h-63.601v66h63.601c16.6,0,30,13.4,30,30c0,16.601-13.4,30-30,30 h-63.601V830.9h125.5c16.601,0,30,13.399,30,30C645.436,877.5,632.037,891,615.436,891z" style="fill: rgb(255, 224, 121);"/>
    <path d="M224.037,970.5c7.4,12.3,25.8,11.7,32.3-1.1l69.2-136.8c0.2-0.4,0.3-0.7,0.5-1.101h-185c0.3,0.601,0.7,1.3,1,1.9 L224.037,970.5z" style="fill: rgb(128, 214, 250);"/>
    <path d="M279.636,0h-97.3c-23.5,0-47.5,23.6-47.5,46.6l0.2,84.6h192.3l-0.2-84.5C327.136,23.7,303.136,0,279.636,0z" style="fill: rgb(128, 214, 250);"/>
    <polygon points="327.537,191.3 135.236,191.3 136.836,771.5 329.237,771.5 &#9;" style="fill: rgb(128, 214, 250);"/>
  </g>
  <g/>
  <g/>
  <g/>
  <g/>
  <g/>
  <g/>
  <g/>
  <g/>
  <g/>
  <g/>
  <g/>
  <g/>
  <g/>
  <g/>
  <g/>
</svg>