<svg width="503.68" height="503.68" xmlns="http://www.w3.org/2000/svg" xml:space="preserve" version="1.1">

 <g>
  <title>Layer 1</title>
  <g id="svg_1">
   <path id="svg_2" fill="#FFD7D7" d="m259.84,333.746c5.12,0 8.533,4.267 8.533,8.533s-3.413,8.533 -8.533,8.533s-8.533,-4.267 -8.533,-8.533s3.413,-8.533 8.533,-8.533l0,0z"/>
   <path id="svg_3" fill="#F2EDDA" d="m507.307,43.613l0,256l-119.467,0l0,-221.867l-42.667,-68.266l128,0c17.067,0 34.134,17.066 34.134,34.133zm-375.467,221.867l0,34.133l-119.467,0l0,-256c0,-17.067 17.067,-34.133 34.134,-34.133l51.2,0l34.133,0l0,51.2l0,34.133l0,34.133l0,34.133l0,34.133l0,34.133l0,34.135zm213.333,-256l-42.667,68.267l0,221.867l-34.133,0l0,-290.134l76.8,0z"/>
   <polygon id="svg_4" fill="#ECF4F7" points="345.1730041503906,9.480000019073486 387.8399963378906,77.74600219726562 302.5069885253906,77.74600219726562 "/>
   <polygon id="svg_5" fill="#80D6FA" points="345.1730041503906,299.6130065917969 302.5069885253906,299.6130065917969 302.5069885253906,77.74600219726562 387.8399963378906,77.74600219726562 387.8399963378906,299.6130065917969 "/>
   <polygon id="svg_6" fill="#ECF4F7" points="217.17300415039062,453.2130126953125 302.5069885253906,453.2130126953125 302.5069885253906,384.9469909667969 217.17300415039062,384.9469909667969 "/>
   <polygon id="svg_7" fill="#FFE079" points="131.83999633789062,231.3459930419922 131.83999633789062,197.21299743652344 131.83999633789062,163.0800018310547 131.83999633789062,128.9459991455078 131.83999633789062,94.81300354003906 131.83999633789062,60.68000030517578 131.83999633789062,9.480000019073486 268.37298583984375,9.480000019073486 268.37298583984375,299.6130065917969 131.83999633789062,299.6130065917969 131.83999633789062,265.4800109863281 "/>
   <g id="svg_8">
    <path id="svg_9" fill="#ECF4F7" d="m507.307,299.613l0,51.2c0,17.067 -17.067,34.133 -34.133,34.133l-170.667,0l-85.333,0l-170.667,0c-17.067,0 -34.133,-17.067 -34.133,-34.133l0,-51.2l119.466,0l136.533,0l34.133,0l42.667,0l42.667,0l119.467,0z"/>
    <path id="svg_10" fill="#ECF4F7" d="m473.173,495.88l0,8.533l-68.267,0l0,-8.533c0,-14.507 11.093,-25.6 25.6,-25.6l17.067,0c14.507,0 25.6,11.093 25.6,25.6"/>
   </g>
  </g>
  <path id="svg_11" fill="#51565F" d="m465.173,503.68l-68.267,0c-2.56,0 -4.267,-1.707 -4.267,-4.267l0,-8.533c0,-16.213 13.653,-29.867 29.867,-29.867l17.067,0c16.213,0 29.867,13.653 29.867,29.867l0,8.533c0,2.56 -1.707,4.267 -4.267,4.267zm-64,-8.533l59.733,0l0,-4.267c0,-11.947 -9.387,-21.333 -21.333,-21.333l-17.067,0c-11.947,0 -21.333,9.387 -21.333,21.333l0,4.267zm-55.466,8.533l-307.2,0c-2.56,0 -4.267,-1.707 -4.267,-4.267s1.707,-4.267 4.267,-4.267l12.8,0l0,-12.8c0,-2.56 1.707,-4.267 4.267,-4.267c2.56,0 4.267,1.707 4.267,4.267l0,12.8l25.6,0l0,-12.8c0,-2.56 1.707,-4.267 4.267,-4.267s4.267,1.707 4.267,4.267l0,12.8l25.6,0l0,-12.8c0,-2.56 1.707,-4.267 4.267,-4.267c2.56,0 4.267,1.707 4.267,4.267l0,12.8l25.6,0l0,-12.8c0,-2.56 1.707,-4.267 4.267,-4.267s4.267,1.707 4.267,4.267l0,12.8l25.6,0l0,-12.8c0,-2.56 1.707,-4.267 4.267,-4.267s4.267,1.707 4.267,4.267l0,12.8l25.6,0l0,-12.8c0,-2.56 1.707,-4.267 4.267,-4.267c2.56,0 4.267,1.707 4.267,4.267l0,12.8l25.6,0l0,-12.8c0,-2.56 1.707,-4.267 4.267,-4.267s4.267,1.707 4.267,4.267l0,12.8l25.6,0l0,-12.8c0,-2.56 1.707,-4.267 4.267,-4.267s4.267,1.707 4.267,4.267l0,12.8l25.6,0l0,-12.8c0,-2.56 1.707,-4.267 4.267,-4.267s4.267,1.707 4.267,4.267l0,12.8l12.8,0c2.56,0 4.267,1.707 4.267,4.267s-1.713,4.267 -4.273,4.267zm-51.2,-51.2c-2.56,0 -4.267,-1.707 -4.267,-4.267l0,-34.133c0,-2.56 1.707,-4.267 4.267,-4.267s4.267,1.707 4.267,4.267l0,34.133c-0.001,2.56 -1.707,4.267 -4.267,4.267zm-85.334,0c-2.56,0 -4.267,-1.707 -4.267,-4.267l0,-34.133c0,-2.56 1.707,-4.267 4.267,-4.267s4.267,1.707 4.267,4.267l0,34.133c0,2.56 -1.707,4.267 -4.267,4.267zm256,-68.267l-426.666,0c-19.627,0 -38.4,-18.773 -38.4,-38.4l0,-51.2c0,-2.56 1.707,-4.267 4.267,-4.267l460.8,0c2.56,0 4.267,1.707 4.267,4.267c0,2.56 -1.707,4.267 -4.267,4.267l-456.534,0l0,46.933c0,14.507 15.36,29.867 29.867,29.867l426.667,0c14.507,0 29.867,-15.36 29.867,-29.867l0,-307.2c0,-14.507 -15.36,-29.867 -29.867,-29.867l-85.334,0c-2.56,0 -4.267,-1.707 -4.267,-4.267s1.707,-4.267 4.267,-4.267l85.333,0c19.627,0 38.4,18.773 38.4,38.4l0,307.2c0,19.628 -18.773,38.401 -38.4,38.401zm-213.333,-34.133c-6.827,0 -12.8,-5.973 -12.8,-12.8c0,-6.827 5.973,-12.8 12.8,-12.8c6.827,0 12.8,5.973 12.8,12.8c0,6.826 -5.973,12.8 -12.8,12.8zm0,-17.067c-2.56,0 -4.267,1.707 -4.267,4.267c0,2.56 1.707,4.267 4.267,4.267s4.267,-1.707 4.267,-4.267c0,-2.56 -1.707,-4.267 -4.267,-4.267zm128,-68.267c-2.56,0 -4.267,-1.707 -4.267,-4.267l0,-153.6c0,-2.56 1.707,-4.267 4.267,-4.267s4.267,1.707 4.267,4.267l0,153.6c0,2.561 -1.707,4.267 -4.267,4.267zm-42.667,0c-2.56,0 -4.267,-1.707 -4.267,-4.267l0,-153.6c0,-2.56 1.707,-4.267 4.267,-4.267s4.267,1.707 4.267,4.267l0,153.6c0,2.561 -1.707,4.267 -4.267,4.267zm-42.666,0c-2.56,0 -4.267,-1.707 -4.267,-4.267l0,-187.733c0,-0.853 0,-1.707 0.853,-2.56l42.667,-68.266c1.707,-2.56 5.973,-2.56 6.827,0l42.667,68.267c0.853,1.707 0.853,2.56 0,4.267c-0.853,1.707 -2.56,2.56 -3.413,2.56l-51.2,0c-2.56,0 -4.267,-1.707 -4.267,-4.267c0,-2.56 1.707,-4.267 4.267,-4.267l43.52,0l-34.987,-56.32l-38.4,61.44l0,186.88c-0.001,2.56 -1.707,4.266 -4.267,4.266zm-34.134,0c-2.56,0 -4.267,-1.707 -4.267,-4.267l0,-251.733l-128,0l0,42.667l46.933,0c2.56,0 4.267,1.707 4.267,4.267s-1.707,4.267 -4.267,4.267l-46.933,0l0,25.6l12.8,0c2.56,0 4.267,1.707 4.267,4.267s-1.707,4.267 -4.267,4.267l-12.8,0l0,25.6l12.8,0c2.56,0 4.267,1.707 4.267,4.267c0,2.56 -1.707,4.267 -4.267,4.267l-12.8,0l0,25.6l46.933,0c2.56,0 4.267,1.707 4.267,4.267c0,2.56 -1.707,4.267 -4.267,4.267l-46.933,0l0,25.6l12.8,0c2.56,0 4.267,1.707 4.267,4.267c0,2.56 -1.707,4.267 -4.267,4.267l-12.8,0l0,25.6l12.8,0c2.56,0 4.267,1.707 4.267,4.267s-1.707,4.267 -4.267,4.267l-12.8,0l0,29.867c0,2.56 -1.707,4.267 -4.267,4.267c-2.56,0 -4.267,-1.707 -4.267,-4.267l0,-256c0,-2.56 1.707,-4.267 4.267,-4.267l136.533,0c2.56,0 4.267,1.707 4.267,4.267l0,256c0.001,2.556 -1.706,4.262 -4.266,4.262zm-256,0c-2.56,0 -4.267,-1.707 -4.267,-4.267l0,-221.866c0,-19.627 18.773,-38.4 38.4,-38.4l51.2,0c2.56,0 4.267,1.707 4.267,4.267s-1.707,4.267 -4.267,4.267l-51.2,0c-14.506,-0.001 -29.866,15.359 -29.866,29.866l0,221.867c0,2.56 -1.707,4.266 -4.267,4.266z"/>
  <g id="svg_12"/>
  <g id="svg_13"/>
  <g id="svg_14"/>
  <g id="svg_15"/>
  <g id="svg_16"/>
  <g id="svg_17"/>
  <g id="svg_18"/>
  <g id="svg_19"/>
  <g id="svg_20"/>
  <g id="svg_21"/>
  <g id="svg_22"/>
  <g id="svg_23"/>
  <g id="svg_24"/>
  <g id="svg_25"/>
  <g id="svg_26"/>
  <rect id="svg_30" height="52" width="91" y="312.84" x="206.84003" stroke-width="0" stroke="#000" fill="#ecf4f7"/>
  <text stroke-width="2" font-weight="bold" xml:space="preserve" text-anchor="start" font-family="'Roboto Slab'" font-size="70" id="svg_31" y="358.84" x="127.84003" stroke="#000" fill="#000000">Pitshop</text>
 </g>
</svg>